<mxfile host="app.diagrams.net" modified="2023-02-21T10:52:37.808Z" agent="5.0 (Macintosh; Intel Mac OS X 10_15_7) AppleWebKit/537.36 (KHTML, like Gecko) Chrome/109.0.0.0 Safari/537.36" etag="_kyYMm8frUu82IQhHtxK" version="20.8.21" type="github">
  <diagram name="AWS EFT: Dedicated Infra" id="HeaR1gAyR54nK1c3nzdC">
    <mxGraphModel dx="794" dy="748" grid="1" gridSize="10" guides="1" tooltips="1" connect="1" arrows="1" fold="1" page="1" pageScale="1" pageWidth="850" pageHeight="1100" math="0" shadow="0">
      <root>
        <mxCell id="0" />
        <mxCell id="1" parent="0" />
        <mxCell id="zMqZm9KQEDGpEcXNtgw7-2" value="AWS Cloud" style="points=[[0,0],[0.25,0],[0.5,0],[0.75,0],[1,0],[1,0.25],[1,0.5],[1,0.75],[1,1],[0.75,1],[0.5,1],[0.25,1],[0,1],[0,0.75],[0,0.5],[0,0.25]];outlineConnect=0;gradientColor=none;html=1;whiteSpace=wrap;fontSize=12;fontStyle=0;container=1;pointerEvents=0;collapsible=0;recursiveResize=0;shape=mxgraph.aws4.group;grIcon=mxgraph.aws4.group_aws_cloud_alt;strokeColor=#232F3E;fillColor=none;verticalAlign=top;align=left;spacingLeft=30;fontColor=#232F3E;dashed=0;" vertex="1" parent="1">
          <mxGeometry x="170" y="120" width="290" height="270" as="geometry" />
        </mxCell>
        <mxCell id="zMqZm9KQEDGpEcXNtgw7-8" value="AWS Transffer &#xa;Family" style="fillColor=none;strokeColor=#5A6C86;dashed=1;verticalAlign=top;fontStyle=0;fontColor=#5A6C86;" vertex="1" parent="zMqZm9KQEDGpEcXNtgw7-2">
          <mxGeometry x="24" y="42" width="110" height="210" as="geometry" />
        </mxCell>
        <mxCell id="zMqZm9KQEDGpEcXNtgw7-6" value="Server 1" style="sketch=0;points=[[0,0,0],[0.25,0,0],[0.5,0,0],[0.75,0,0],[1,0,0],[0,1,0],[0.25,1,0],[0.5,1,0],[0.75,1,0],[1,1,0],[0,0.25,0],[0,0.5,0],[0,0.75,0],[1,0.25,0],[1,0.5,0],[1,0.75,0]];outlineConnect=0;fontColor=#232F3E;gradientColor=#4AB29A;gradientDirection=north;fillColor=#116D5B;strokeColor=#ffffff;dashed=0;verticalLabelPosition=bottom;verticalAlign=top;align=center;html=1;fontSize=12;fontStyle=0;aspect=fixed;shape=mxgraph.aws4.resourceIcon;resIcon=mxgraph.aws4.transfer_for_sftp;" vertex="1" parent="zMqZm9KQEDGpEcXNtgw7-2">
          <mxGeometry x="54" y="92" width="44" height="44" as="geometry" />
        </mxCell>
        <mxCell id="zMqZm9KQEDGpEcXNtgw7-7" value="Server 2" style="sketch=0;points=[[0,0,0],[0.25,0,0],[0.5,0,0],[0.75,0,0],[1,0,0],[0,1,0],[0.25,1,0],[0.5,1,0],[0.75,1,0],[1,1,0],[0,0.25,0],[0,0.5,0],[0,0.75,0],[1,0.25,0],[1,0.5,0],[1,0.75,0]];outlineConnect=0;fontColor=#232F3E;gradientColor=#4AB29A;gradientDirection=north;fillColor=#116D5B;strokeColor=#ffffff;dashed=0;verticalLabelPosition=bottom;verticalAlign=top;align=center;html=1;fontSize=12;fontStyle=0;aspect=fixed;shape=mxgraph.aws4.resourceIcon;resIcon=mxgraph.aws4.transfer_for_sftp;" vertex="1" parent="zMqZm9KQEDGpEcXNtgw7-2">
          <mxGeometry x="57" y="172.4" width="44" height="44" as="geometry" />
        </mxCell>
        <mxCell id="zMqZm9KQEDGpEcXNtgw7-9" value="         Amazon S3" style="fillColor=none;strokeColor=#5A6C86;dashed=1;verticalAlign=top;fontStyle=0;fontColor=#5A6C86;" vertex="1" parent="zMqZm9KQEDGpEcXNtgw7-2">
          <mxGeometry x="173" y="42" width="100" height="210" as="geometry" />
        </mxCell>
        <mxCell id="zMqZm9KQEDGpEcXNtgw7-10" value="" style="sketch=0;points=[[0,0,0],[0.25,0,0],[0.5,0,0],[0.75,0,0],[1,0,0],[0,1,0],[0.25,1,0],[0.5,1,0],[0.75,1,0],[1,1,0],[0,0.25,0],[0,0.5,0],[0,0.75,0],[1,0.25,0],[1,0.5,0],[1,0.75,0]];outlineConnect=0;fontColor=#232F3E;gradientColor=#60A337;gradientDirection=north;fillColor=#277116;strokeColor=#ffffff;dashed=0;verticalLabelPosition=bottom;verticalAlign=top;align=center;html=1;fontSize=12;fontStyle=0;aspect=fixed;shape=mxgraph.aws4.resourceIcon;resIcon=mxgraph.aws4.s3;" vertex="1" parent="zMqZm9KQEDGpEcXNtgw7-2">
          <mxGeometry x="173" y="42" width="30" height="30" as="geometry" />
        </mxCell>
        <mxCell id="zMqZm9KQEDGpEcXNtgw7-12" value="Bucket 2" style="sketch=0;outlineConnect=0;fontColor=#232F3E;gradientColor=none;fillColor=#3F8624;strokeColor=none;dashed=0;verticalLabelPosition=bottom;verticalAlign=top;align=center;html=1;fontSize=12;fontStyle=0;aspect=fixed;pointerEvents=1;shape=mxgraph.aws4.bucket;" vertex="1" parent="zMqZm9KQEDGpEcXNtgw7-2">
          <mxGeometry x="211.5" y="181.04000000000002" width="34" height="35.36" as="geometry" />
        </mxCell>
        <mxCell id="zMqZm9KQEDGpEcXNtgw7-15" value="" style="edgeStyle=orthogonalEdgeStyle;html=1;endArrow=block;elbow=vertical;startArrow=none;endFill=1;strokeColor=#545B64;rounded=0;" edge="1" parent="zMqZm9KQEDGpEcXNtgw7-2">
          <mxGeometry width="100" relative="1" as="geometry">
            <mxPoint x="-50" y="120" as="sourcePoint" />
            <mxPoint x="50" y="120" as="targetPoint" />
          </mxGeometry>
        </mxCell>
        <mxCell id="zMqZm9KQEDGpEcXNtgw7-20" value="" style="edgeStyle=orthogonalEdgeStyle;html=1;endArrow=block;elbow=vertical;startArrow=none;endFill=1;strokeColor=#545B64;rounded=0;" edge="1" parent="zMqZm9KQEDGpEcXNtgw7-2">
          <mxGeometry width="100" relative="1" as="geometry">
            <mxPoint x="108" y="119.5" as="sourcePoint" />
            <mxPoint x="208" y="119.5" as="targetPoint" />
          </mxGeometry>
        </mxCell>
        <mxCell id="zMqZm9KQEDGpEcXNtgw7-21" value="Bucket 1" style="sketch=0;outlineConnect=0;fontColor=#232F3E;gradientColor=none;fillColor=#3F8624;strokeColor=none;dashed=0;verticalLabelPosition=bottom;verticalAlign=top;align=center;html=1;fontSize=12;fontStyle=0;aspect=fixed;pointerEvents=1;shape=mxgraph.aws4.bucket;" vertex="1" parent="zMqZm9KQEDGpEcXNtgw7-2">
          <mxGeometry x="211.5" y="100.64" width="34" height="35.36" as="geometry" />
        </mxCell>
        <mxCell id="zMqZm9KQEDGpEcXNtgw7-13" value="Tenant 1" style="sketch=0;outlineConnect=0;fontColor=#232F3E;gradientColor=none;fillColor=#232F3D;strokeColor=none;dashed=0;verticalLabelPosition=bottom;verticalAlign=top;align=center;html=1;fontSize=12;fontStyle=0;aspect=fixed;pointerEvents=1;shape=mxgraph.aws4.user;" vertex="1" parent="1">
          <mxGeometry x="86" y="221" width="28" height="28" as="geometry" />
        </mxCell>
        <mxCell id="zMqZm9KQEDGpEcXNtgw7-14" value="Tenant 2" style="sketch=0;outlineConnect=0;fontColor=#232F3E;gradientColor=none;fillColor=#232F3D;strokeColor=none;dashed=0;verticalLabelPosition=bottom;verticalAlign=top;align=center;html=1;fontSize=12;fontStyle=0;aspect=fixed;pointerEvents=1;shape=mxgraph.aws4.user;" vertex="1" parent="1">
          <mxGeometry x="86" y="300" width="28" height="28" as="geometry" />
        </mxCell>
        <mxCell id="zMqZm9KQEDGpEcXNtgw7-19" value="" style="edgeStyle=orthogonalEdgeStyle;html=1;endArrow=block;elbow=vertical;startArrow=none;endFill=1;strokeColor=#545B64;rounded=0;" edge="1" parent="1">
          <mxGeometry width="100" relative="1" as="geometry">
            <mxPoint x="119" y="320" as="sourcePoint" />
            <mxPoint x="219" y="320" as="targetPoint" />
          </mxGeometry>
        </mxCell>
        <mxCell id="zMqZm9KQEDGpEcXNtgw7-22" value="" style="edgeStyle=orthogonalEdgeStyle;html=1;endArrow=block;elbow=vertical;startArrow=none;endFill=1;strokeColor=#545B64;rounded=0;" edge="1" parent="1">
          <mxGeometry width="100" relative="1" as="geometry">
            <mxPoint x="280" y="318.5" as="sourcePoint" />
            <mxPoint x="380" y="318.5" as="targetPoint" />
          </mxGeometry>
        </mxCell>
        <mxCell id="zMqZm9KQEDGpEcXNtgw7-23" value="AWS Cloud" style="points=[[0,0],[0.25,0],[0.5,0],[0.75,0],[1,0],[1,0.25],[1,0.5],[1,0.75],[1,1],[0.75,1],[0.5,1],[0.25,1],[0,1],[0,0.75],[0,0.5],[0,0.25]];outlineConnect=0;gradientColor=none;html=1;whiteSpace=wrap;fontSize=12;fontStyle=0;container=1;pointerEvents=0;collapsible=0;recursiveResize=0;shape=mxgraph.aws4.group;grIcon=mxgraph.aws4.group_aws_cloud_alt;strokeColor=#232F3E;fillColor=none;verticalAlign=top;align=left;spacingLeft=30;fontColor=#232F3E;dashed=0;" vertex="1" parent="1">
          <mxGeometry x="172" y="440" width="290" height="270" as="geometry" />
        </mxCell>
        <mxCell id="zMqZm9KQEDGpEcXNtgw7-24" value="AWS Transffer &#xa;Family" style="fillColor=none;strokeColor=#5A6C86;dashed=1;verticalAlign=top;fontStyle=0;fontColor=#5A6C86;" vertex="1" parent="zMqZm9KQEDGpEcXNtgw7-23">
          <mxGeometry x="24" y="42" width="110" height="210" as="geometry" />
        </mxCell>
        <mxCell id="zMqZm9KQEDGpEcXNtgw7-25" value="Shared Server" style="sketch=0;points=[[0,0,0],[0.25,0,0],[0.5,0,0],[0.75,0,0],[1,0,0],[0,1,0],[0.25,1,0],[0.5,1,0],[0.75,1,0],[1,1,0],[0,0.25,0],[0,0.5,0],[0,0.75,0],[1,0.25,0],[1,0.5,0],[1,0.75,0]];outlineConnect=0;fontColor=#232F3E;gradientColor=#4AB29A;gradientDirection=north;fillColor=#116D5B;strokeColor=#ffffff;dashed=0;verticalLabelPosition=bottom;verticalAlign=top;align=center;html=1;fontSize=12;fontStyle=0;aspect=fixed;shape=mxgraph.aws4.resourceIcon;resIcon=mxgraph.aws4.transfer_for_sftp;" vertex="1" parent="zMqZm9KQEDGpEcXNtgw7-23">
          <mxGeometry x="57" y="136" width="44" height="44" as="geometry" />
        </mxCell>
        <mxCell id="zMqZm9KQEDGpEcXNtgw7-27" value="         Amazon S3" style="fillColor=none;strokeColor=#5A6C86;dashed=1;verticalAlign=top;fontStyle=0;fontColor=#5A6C86;" vertex="1" parent="zMqZm9KQEDGpEcXNtgw7-23">
          <mxGeometry x="173" y="42" width="100" height="210" as="geometry" />
        </mxCell>
        <mxCell id="zMqZm9KQEDGpEcXNtgw7-28" value="" style="sketch=0;points=[[0,0,0],[0.25,0,0],[0.5,0,0],[0.75,0,0],[1,0,0],[0,1,0],[0.25,1,0],[0.5,1,0],[0.75,1,0],[1,1,0],[0,0.25,0],[0,0.5,0],[0,0.75,0],[1,0.25,0],[1,0.5,0],[1,0.75,0]];outlineConnect=0;fontColor=#232F3E;gradientColor=#60A337;gradientDirection=north;fillColor=#277116;strokeColor=#ffffff;dashed=0;verticalLabelPosition=bottom;verticalAlign=top;align=center;html=1;fontSize=12;fontStyle=0;aspect=fixed;shape=mxgraph.aws4.resourceIcon;resIcon=mxgraph.aws4.s3;" vertex="1" parent="zMqZm9KQEDGpEcXNtgw7-23">
          <mxGeometry x="173" y="42" width="30" height="30" as="geometry" />
        </mxCell>
        <mxCell id="zMqZm9KQEDGpEcXNtgw7-29" value="Tenant 2 Bucket" style="sketch=0;outlineConnect=0;fontColor=#232F3E;gradientColor=none;fillColor=#3F8624;strokeColor=none;dashed=0;verticalLabelPosition=bottom;verticalAlign=top;align=center;html=1;fontSize=12;fontStyle=0;aspect=fixed;pointerEvents=1;shape=mxgraph.aws4.bucket;" vertex="1" parent="zMqZm9KQEDGpEcXNtgw7-23">
          <mxGeometry x="211.5" y="181.04000000000002" width="34" height="35.36" as="geometry" />
        </mxCell>
        <mxCell id="zMqZm9KQEDGpEcXNtgw7-30" value="" style="edgeStyle=orthogonalEdgeStyle;html=1;endArrow=block;elbow=vertical;startArrow=none;endFill=1;strokeColor=#545B64;rounded=0;entryX=0;entryY=0.5;entryDx=0;entryDy=0;entryPerimeter=0;" edge="1" parent="zMqZm9KQEDGpEcXNtgw7-23" target="zMqZm9KQEDGpEcXNtgw7-25">
          <mxGeometry width="100" relative="1" as="geometry">
            <mxPoint x="-50" y="120" as="sourcePoint" />
            <mxPoint x="50" y="120" as="targetPoint" />
            <Array as="points">
              <mxPoint x="-22" y="120" />
              <mxPoint x="-22" y="158" />
            </Array>
          </mxGeometry>
        </mxCell>
        <mxCell id="zMqZm9KQEDGpEcXNtgw7-31" value="" style="edgeStyle=orthogonalEdgeStyle;html=1;endArrow=block;elbow=vertical;startArrow=none;endFill=1;strokeColor=#545B64;rounded=0;exitX=1;exitY=0.25;exitDx=0;exitDy=0;exitPerimeter=0;" edge="1" parent="zMqZm9KQEDGpEcXNtgw7-23">
          <mxGeometry width="100" relative="1" as="geometry">
            <mxPoint x="105" y="152" as="sourcePoint" />
            <mxPoint x="212" y="124.5" as="targetPoint" />
            <Array as="points">
              <mxPoint x="152" y="152" />
              <mxPoint x="152" y="125" />
            </Array>
          </mxGeometry>
        </mxCell>
        <mxCell id="zMqZm9KQEDGpEcXNtgw7-32" value="Bucket 1" style="sketch=0;outlineConnect=0;fontColor=#232F3E;gradientColor=none;fillColor=#3F8624;strokeColor=none;dashed=0;verticalLabelPosition=bottom;verticalAlign=top;align=center;html=1;fontSize=12;fontStyle=0;aspect=fixed;pointerEvents=1;shape=mxgraph.aws4.bucket;" vertex="1" parent="zMqZm9KQEDGpEcXNtgw7-23">
          <mxGeometry x="211.5" y="100.64" width="34" height="35.36" as="geometry" />
        </mxCell>
        <mxCell id="zMqZm9KQEDGpEcXNtgw7-33" value="Tenant 1" style="sketch=0;outlineConnect=0;fontColor=#232F3E;gradientColor=none;fillColor=#232F3D;strokeColor=none;dashed=0;verticalLabelPosition=bottom;verticalAlign=top;align=center;html=1;fontSize=12;fontStyle=0;aspect=fixed;pointerEvents=1;shape=mxgraph.aws4.user;" vertex="1" parent="1">
          <mxGeometry x="88" y="541" width="28" height="28" as="geometry" />
        </mxCell>
        <mxCell id="zMqZm9KQEDGpEcXNtgw7-34" value="Tenant 2" style="sketch=0;outlineConnect=0;fontColor=#232F3E;gradientColor=none;fillColor=#232F3D;strokeColor=none;dashed=0;verticalLabelPosition=bottom;verticalAlign=top;align=center;html=1;fontSize=12;fontStyle=0;aspect=fixed;pointerEvents=1;shape=mxgraph.aws4.user;" vertex="1" parent="1">
          <mxGeometry x="88" y="620" width="28" height="28" as="geometry" />
        </mxCell>
        <mxCell id="zMqZm9KQEDGpEcXNtgw7-35" value="" style="edgeStyle=orthogonalEdgeStyle;html=1;endArrow=block;elbow=vertical;startArrow=none;endFill=1;strokeColor=#545B64;rounded=0;entryX=0;entryY=0.75;entryDx=0;entryDy=0;entryPerimeter=0;" edge="1" parent="1" target="zMqZm9KQEDGpEcXNtgw7-25">
          <mxGeometry width="100" relative="1" as="geometry">
            <mxPoint x="121" y="640" as="sourcePoint" />
            <mxPoint x="221" y="640" as="targetPoint" />
            <Array as="points">
              <mxPoint x="150" y="640" />
              <mxPoint x="150" y="609" />
            </Array>
          </mxGeometry>
        </mxCell>
        <mxCell id="zMqZm9KQEDGpEcXNtgw7-36" value="" style="edgeStyle=orthogonalEdgeStyle;html=1;endArrow=block;elbow=vertical;startArrow=none;endFill=1;strokeColor=#545B64;rounded=0;exitX=1;exitY=0.75;exitDx=0;exitDy=0;exitPerimeter=0;" edge="1" parent="1">
          <mxGeometry width="100" relative="1" as="geometry">
            <mxPoint x="275" y="607" as="sourcePoint" />
            <mxPoint x="384" y="636.5" as="targetPoint" />
            <Array as="points">
              <mxPoint x="322" y="607" />
              <mxPoint x="322" y="637" />
            </Array>
          </mxGeometry>
        </mxCell>
      </root>
    </mxGraphModel>
  </diagram>
</mxfile>
